<?xml version="1.0" standalone="no"?>
<!DOCTYPE svg PUBLIC "-//W3C//DTD SVG 20010904//EN"
 "http://www.w3.org/TR/2001/REC-SVG-20010904/DTD/svg10.dtd">
<svg version="1.0" xmlns="http://www.w3.org/2000/svg"
 width="1152.000000pt" height="1152.000000pt" viewBox="0 0 1152.000000 1152.000000"
 preserveAspectRatio="xMidYMid meet">
<metadata>
Created by potrace 1.14, written by Peter Selinger 2001-2017
</metadata>
<g transform="translate(0.000000,1152.000000) scale(0.100000,-0.100000)"
fill="#000000" stroke="none">
<path d="M7857 11514 c-1 -1 -24 -5 -52 -8 -99 -12 -178 -27 -190 -34 -5 -4
-17 -7 -25 -8 -8 0 -22 -3 -30 -7 -8 -3 -53 -18 -100 -33 -47 -15 -101 -34
-120 -42 -19 -9 -37 -16 -40 -17 -55 -16 -213 -99 -398 -210 -9 -6 -46 -30
-81 -55 -35 -25 -70 -49 -79 -55 -8 -5 -23 -17 -32 -25 -9 -8 -36 -31 -60 -50
-114 -92 -270 -248 -342 -345 -5 -5 -24 -28 -43 -50 -19 -22 -35 -43 -35 -47
0 -4 -6 -13 -12 -20 -48 -52 -175 -263 -251 -419 -37 -75 -67 -139 -67 -143 0
-4 -9 -28 -21 -53 -11 -25 -22 -53 -24 -62 -2 -9 -15 -50 -28 -91 -23 -65 -33
-101 -52 -183 -2 -10 -6 -26 -9 -35 -3 -9 -8 -33 -11 -52 -3 -19 -7 -46 -10
-60 -13 -71 -17 -101 -20 -170 -2 -41 -5 -77 -6 -80 -5 -15 -4 -89 2 -112 4
-15 3 -30 -2 -34 -5 -3 -6 -10 -3 -16 4 -6 9 -31 11 -57 3 -48 12 -62 40 -69
36 -7 218 -8 258 -1 22 4 60 10 85 14 25 3 63 11 85 17 22 5 47 11 55 13 75
15 288 103 418 172 74 40 285 176 311 202 10 9 37 32 62 51 83 65 238 217 290
285 13 17 26 32 29 35 3 3 19 23 35 45 17 22 32 42 35 45 16 14 104 147 157
235 51 84 146 268 148 285 1 3 8 19 16 35 9 17 26 59 39 95 13 36 28 71 33 78
5 6 7 12 3 12 -3 0 1 17 9 38 33 86 58 184 86 332 39 209 57 475 34 492 -6 5
-5 8 3 8 7 0 11 4 8 8 -3 5 -7 37 -11 72 -3 34 -8 66 -10 70 -4 7 -81 10 -88
4z"/>
<path d="M7688 8734 c-2 -1 -39 -5 -83 -8 -79 -5 -137 -12 -185 -22 -14 -2
-42 -7 -64 -10 -30 -5 -241 -59 -301 -78 -5 -1 -23 -6 -40 -11 -16 -4 -34 -11
-40 -15 -8 -6 -43 -17 -75 -24 -10 -3 -156 -59 -195 -76 -55 -24 -78 -33 -90
-35 -10 -3 -193 -78 -230 -95 -60 -28 -232 -90 -315 -113 -171 -48 -250 -52
-414 -22 -36 7 -207 62 -266 85 -73 29 -85 33 -92 32 -5 -1 -8 2 -8 6 0 5 -6
9 -12 9 -7 0 -38 12 -68 26 -30 14 -91 39 -135 57 -44 18 -84 35 -90 39 -5 3
-12 6 -15 7 -6 1 -27 9 -115 44 -73 29 -255 89 -291 96 -12 2 -40 10 -63 18
-22 9 -41 13 -41 11 0 -2 -14 0 -32 5 -17 5 -47 12 -67 15 -20 3 -48 7 -61 10
-92 18 -368 24 -475 11 -27 -4 -68 -9 -90 -11 -35 -4 -91 -12 -135 -20 -17 -2
-58 -12 -115 -26 -22 -6 -47 -11 -55 -13 -113 -21 -488 -168 -512 -201 -4 -5
-8 -6 -8 -1 0 5 -9 1 -20 -9 -11 -10 -20 -15 -20 -11 0 4 -20 -7 -44 -24 -25
-16 -47 -30 -51 -30 -3 0 -44 -26 -91 -57 -47 -32 -94 -63 -106 -70 -11 -6
-23 -15 -27 -20 -3 -5 -25 -23 -49 -40 -131 -94 -362 -326 -482 -483 -14 -18
-32 -41 -42 -51 -9 -9 -14 -20 -11 -23 3 -3 -2 -8 -11 -12 -9 -3 -16 -9 -16
-13 0 -3 -38 -65 -85 -136 -86 -131 -226 -401 -285 -550 -31 -78 -119 -333
-125 -364 -2 -9 -17 -69 -34 -134 -17 -65 -33 -132 -36 -150 -3 -18 -12 -68
-21 -112 -8 -44 -17 -99 -20 -121 -3 -23 -7 -53 -10 -65 -3 -13 -7 -51 -10
-84 -2 -33 -7 -71 -9 -85 -12 -69 -20 -263 -19 -515 0 -284 6 -424 29 -630 2
-22 7 -62 9 -90 3 -27 8 -66 11 -85 15 -104 25 -168 29 -189 3 -12 8 -42 10
-65 3 -22 9 -54 12 -71 3 -16 7 -39 9 -50 1 -11 3 -20 4 -20 1 0 4 -12 6 -28
6 -42 25 -138 35 -172 5 -16 12 -46 15 -65 6 -38 13 -65 15 -65 1 0 4 -11 6
-24 2 -14 12 -52 20 -85 9 -34 18 -68 19 -76 2 -8 4 -15 5 -15 1 0 3 -7 5 -15
2 -8 6 -24 9 -35 2 -11 19 -67 36 -125 17 -58 32 -109 34 -115 1 -5 13 -44 26
-85 14 -41 25 -77 25 -80 1 -3 5 -12 8 -20 3 -8 16 -44 27 -80 12 -36 25 -69
30 -74 5 -5 6 -15 3 -22 -3 -8 -1 -14 4 -14 5 0 10 -6 10 -12 0 -13 94 -253
129 -333 10 -22 18 -42 19 -45 5 -15 29 -71 50 -111 13 -26 21 -49 19 -52 -2
-2 2 -10 11 -17 8 -7 15 -18 15 -26 0 -15 205 -419 220 -434 3 -3 14 -21 24
-40 57 -105 205 -341 236 -377 5 -7 10 -16 10 -22 0 -5 3 -11 8 -13 7 -3 33
-39 113 -158 24 -36 52 -74 62 -84 9 -11 17 -25 17 -30 0 -6 9 -17 20 -24 11
-7 20 -18 20 -25 0 -6 14 -27 30 -46 17 -18 30 -37 30 -41 0 -3 13 -22 30 -41
16 -19 34 -39 40 -46 5 -7 10 -15 10 -18 0 -3 23 -34 51 -68 28 -34 68 -82 88
-107 20 -24 51 -63 70 -85 49 -57 312 -315 322 -315 4 0 18 -10 31 -23 33 -32
207 -142 251 -158 20 -7 37 -17 37 -21 0 -4 8 -8 18 -8 10 0 22 -3 26 -7 7 -7
66 -30 101 -39 11 -3 25 -6 30 -8 79 -21 153 -29 265 -29 158 -1 230 5 230 17
0 4 6 6 14 3 7 -3 31 -1 52 4 22 5 47 11 57 14 55 13 198 60 231 76 22 10 43
19 47 19 3 0 33 12 65 27 33 14 64 27 69 29 6 1 42 16 80 34 126 57 182 82
195 84 3 1 37 13 75 28 70 26 125 45 161 53 10 3 46 12 79 20 33 9 71 17 85
18 14 1 30 5 36 9 44 28 553 31 694 3 73 -14 177 -37 190 -42 8 -3 24 -8 35
-10 31 -6 139 -45 153 -56 6 -5 12 -7 12 -4 0 3 24 -5 53 -18 28 -12 115 -51
192 -85 77 -34 146 -67 154 -74 8 -6 16 -10 17 -9 4 3 29 -5 64 -19 30 -12
137 -48 165 -54 11 -3 25 -6 30 -8 194 -55 452 -64 648 -22 15 3 39 8 53 11
15 3 42 12 60 20 18 7 35 11 38 7 3 -3 6 0 6 6 0 7 7 12 16 12 18 0 162 69
181 86 6 6 25 17 42 24 17 7 31 16 31 21 0 5 4 9 10 9 10 0 69 43 155 113 71
59 249 239 323 327 34 41 68 82 75 90 8 8 27 33 43 55 16 22 35 46 42 54 7 7
30 39 52 70 22 31 61 85 87 121 56 79 328 483 329 490 0 3 13 24 28 48 28 46
91 154 115 200 8 15 18 30 23 33 6 3 8 8 6 10 -4 5 82 172 93 179 4 3 9 14 11
25 1 11 5 22 8 25 5 5 31 57 69 139 12 25 21 51 21 58 0 7 4 13 8 13 8 0 34
64 32 76 -1 4 2 10 7 13 17 12 209 509 217 561 1 8 5 22 9 30 8 21 27 93 24
96 -1 1 -51 28 -112 59 -60 32 -116 62 -124 68 -14 12 -46 31 -71 44 -8 4 -19
11 -25 15 -5 5 -35 26 -65 48 -218 157 -425 355 -568 545 -4 6 -21 28 -37 50
-17 22 -33 42 -37 43 -5 2 -8 7 -8 12 0 5 -18 35 -39 68 -22 32 -54 87 -73
123 -18 35 -35 66 -38 69 -10 9 -98 213 -125 290 -15 41 -31 86 -36 100 -13
36 -68 269 -73 310 -7 52 -16 112 -21 135 -24 115 -24 553 -1 695 3 14 7 43
10 65 18 128 46 245 91 390 19 61 35 115 35 120 1 6 9 18 18 29 9 10 15 20 13
22 -7 10 83 208 124 274 14 22 22 40 18 40 -5 0 -3 4 3 8 6 4 24 30 40 57 38
67 144 219 155 223 5 2 9 8 9 13 0 9 15 27 77 98 18 20 52 59 75 88 24 29 48
52 55 53 6 0 15 9 18 20 3 11 10 20 13 20 4 0 33 24 64 54 78 73 180 156 281
228 70 50 75 58 55 80 -21 22 -68 86 -68 93 0 4 -6 12 -12 19 -7 7 -29 32 -48
56 -192 237 -409 428 -662 581 -42 26 -86 50 -97 54 -12 3 -21 11 -21 16 0 5
-5 9 -11 9 -6 0 -43 15 -82 34 -40 18 -88 40 -107 49 -38 17 -220 81 -260 91
-14 4 -67 18 -119 31 -114 30 -246 52 -416 70 -52 6 -343 14 -347 9z"/>
</g>
</svg>
